<?xml version="1.0" encoding="UTF-8" ?>
<!DOCTYPE svg PUBLIC "-//W3C//DTD SVG 1.1//EN" "http://www.w3.org/Graphics/SVG/1.1/DTD/svg11.dtd">
<svg width="309pt" height="95pt" viewBox="0 0 309 95" version="1.1" xmlns="http://www.w3.org/2000/svg">
<path fill="#000000" d=" M 59.00 0.97 C 77.50 0.94 96.00 0.99 114.50 0.95 C 114.22 7.59 115.71 14.94 111.85 20.85 C 109.61 24.63 105.36 26.40 101.33 27.57 C 106.54 32.87 111.63 38.30 116.98 43.46 C 111.92 43.46 106.86 43.64 101.81 43.42 C 92.53 34.93 84.11 25.52 75.29 16.55 C 82.86 16.37 90.44 16.65 98.01 16.42 C 100.33 16.55 101.56 14.38 102.78 12.80 C 92.27 12.69 81.76 12.78 71.25 12.75 C 71.25 13.32 71.25 14.44 71.25 15.00 C 67.17 15.00 63.08 15.00 59.00 15.00 C 59.00 10.32 59.00 5.65 59.00 0.97 Z" />
<path fill="#000000" d=" M 116.50 0.93 C 120.58 0.91 124.67 0.93 128.75 0.99 C 128.75 15.16 128.76 29.33 128.75 43.51 C 125.10 43.51 121.44 43.41 117.80 43.64 C 117.16 42.54 116.08 41.51 116.50 40.08 C 116.49 27.03 116.50 13.98 116.50 0.93 Z" />
<path fill="#000000" d=" M 137.42 5.50 C 141.75 1.92 147.53 0.75 153.03 0.89 C 163.10 1.03 173.18 0.94 183.25 0.96 C 183.25 4.89 183.25 8.82 183.25 12.75 C 172.83 12.76 162.41 12.73 151.99 12.76 C 148.43 12.57 144.40 14.43 143.47 18.13 C 142.52 22.51 143.19 27.05 143.01 31.50 C 156.42 31.50 169.84 31.50 183.25 31.50 C 183.25 35.50 183.25 39.50 183.25 43.50 C 165.75 43.50 148.25 43.50 130.75 43.50 C 130.78 36.02 130.70 28.54 130.77 21.06 C 130.87 15.31 132.86 9.25 137.42 5.50 Z" />
<path fill="#000000" d=" M 185.25 0.97 C 189.33 0.89 193.42 0.90 197.50 1.00 C 197.50 6.17 197.50 11.33 197.50 16.50 C 201.98 16.50 206.45 16.49 210.92 16.50 C 215.40 11.44 219.73 6.21 224.37 1.30 C 229.46 0.29 234.84 1.20 240.04 0.96 C 235.15 6.40 230.35 11.92 225.36 17.26 C 232.11 19.08 237.28 24.70 238.73 31.51 C 252.49 31.46 266.26 31.55 280.02 31.48 C 282.38 31.77 283.77 29.71 285.08 28.12 C 271.81 27.84 258.53 28.08 245.25 28.00 C 245.45 21.32 244.21 13.97 248.01 8.02 C 251.36 2.71 258.04 0.92 263.97 0.92 C 278.66 1.02 293.36 0.90 308.05 1.01 C 304.27 4.88 300.56 8.80 296.88 12.76 C 285.23 12.79 273.58 12.67 261.94 12.81 C 259.56 12.69 258.06 14.70 256.80 16.40 C 270.19 16.62 283.59 16.44 296.99 16.49 C 296.84 23.28 297.91 30.85 293.84 36.78 C 290.35 41.88 283.79 43.38 277.97 43.49 C 260.98 43.53 243.99 43.48 227.00 43.50 C 226.92 40.27 227.29 36.98 226.63 33.79 C 225.93 30.38 222.62 27.95 219.18 28.04 C 211.96 27.93 204.73 28.04 197.50 28.00 C 197.50 33.17 197.50 38.33 197.50 43.50 C 193.42 43.50 189.33 43.50 185.25 43.50 C 185.24 29.33 185.25 15.15 185.25 0.97 Z" />
<path fill="#000000" d=" M 243.15 0.89 C 245.64 0.92 248.13 0.95 250.63 0.99 C 247.51 4.53 244.34 8.02 241.17 11.51 C 238.66 11.51 236.14 11.50 233.63 11.47 C 236.76 7.90 239.97 4.41 243.15 0.89 Z" />
<path fill="#71bf44" d=" M 37.02 16.54 C 48.99 16.45 60.97 16.51 72.95 16.51 C 76.37 19.94 79.75 23.42 83.01 27.00 C 72.23 27.01 61.45 27.00 50.66 27.00 C 51.70 29.12 52.73 31.23 53.74 33.36 C 35.94 29.78 18.21 25.90 0.43 22.26 C 13.56 21.68 26.72 22.15 39.87 22.00 C 38.91 20.18 37.96 18.36 37.02 16.54 Z" />
<path fill="#000000" d=" M 59.50 28.50 C 63.25 28.50 67.00 28.50 70.75 28.49 C 70.76 33.50 70.75 38.50 70.75 43.50 C 67.00 43.50 63.25 43.50 59.50 43.50 C 59.50 38.50 59.50 33.50 59.50 28.50 Z" />
<path fill="#828486" d=" M 59.58 45.49 C 63.29 45.50 67.00 45.50 70.72 45.49 C 70.73 49.70 70.90 53.91 71.08 58.12 C 73.16 53.93 75.26 49.76 77.33 45.56 C 80.98 45.49 84.63 45.49 88.28 45.50 C 86.54 53.66 84.81 61.83 83.07 69.99 C 80.68 70.00 78.29 70.00 75.90 70.00 C 76.94 65.12 78.14 60.28 79.02 55.37 C 76.44 60.15 74.29 65.15 71.88 70.02 C 69.99 70.00 68.09 69.98 66.20 69.95 C 65.91 64.74 65.66 59.53 65.39 54.32 C 64.22 59.53 63.24 64.77 62.17 70.00 C 59.67 70.00 57.17 70.00 54.67 70.00 C 56.31 61.83 57.94 53.66 59.58 45.49 Z" />
<path fill="#828486" d=" M 97.28 45.32 C 101.86 44.40 107.84 45.10 110.32 49.62 C 113.56 56.82 110.56 67.01 102.69 69.73 C 97.79 71.38 90.93 70.76 88.18 65.78 C 84.40 58.16 88.57 47.14 97.28 45.32 Z" />
<path fill="#828486" d=" M 113.77 45.52 C 120.81 45.48 127.85 45.48 134.90 45.52 C 134.41 47.69 133.91 49.86 133.42 52.02 C 131.23 52.01 129.04 52.00 126.85 51.99 C 125.58 57.99 124.33 63.99 123.13 70.00 C 120.55 70.00 117.97 70.00 115.39 70.00 C 116.61 64.00 117.88 58.00 119.09 52.00 C 116.87 52.00 114.64 52.00 112.42 52.00 C 112.87 49.84 113.33 47.68 113.77 45.52 Z" />
<path fill="#828486" d=" M 142.32 45.31 C 147.09 44.31 153.53 45.26 155.64 50.31 C 157.63 55.92 156.48 62.87 152.08 67.06 C 148.06 70.87 141.63 71.53 136.70 69.21 C 132.25 67.01 131.19 61.31 132.07 56.84 C 132.78 51.41 136.87 46.46 142.32 45.31 Z" />
<path fill="#828486" d=" M 183.07 49.00 C 186.35 44.41 193.14 44.12 197.95 46.15 C 200.90 47.24 201.51 50.51 202.08 53.22 C 199.66 53.24 197.25 53.25 194.83 53.26 C 194.59 52.62 194.11 51.33 193.87 50.69 C 192.14 51.02 188.83 50.16 189.02 52.87 C 192.11 54.71 196.03 54.84 198.83 57.21 C 201.78 60.36 200.90 66.09 197.25 68.34 C 192.89 71.15 186.80 71.35 182.37 68.61 C 179.93 67.13 179.53 64.10 178.81 61.60 C 181.26 61.53 183.72 61.49 186.17 61.48 C 186.48 65.39 193.14 66.40 193.30 62.05 C 190.40 60.27 186.84 59.90 184.05 57.92 C 181.28 55.93 180.94 51.56 183.07 49.00 Z" />
<path fill="#828486" d=" M 225.33 55.03 C 227.06 45.83 239.35 41.85 246.43 47.58 C 250.71 52.18 249.86 59.79 246.70 64.79 C 242.95 70.68 234.26 72.26 228.45 68.63 C 224.24 65.79 224.13 60.06 224.93 55.56 C 223.89 57.49 222.98 59.71 221.00 60.88 C 217.62 63.05 213.43 62.66 209.61 62.83 C 209.09 65.22 208.58 67.61 208.07 70.00 C 205.53 70.00 202.99 70.00 200.46 70.00 C 202.17 61.83 203.83 53.65 205.60 45.50 C 210.68 45.71 215.92 44.86 220.89 46.18 C 224.54 47.45 225.04 51.72 225.33 55.03 Z" />
<path fill="#828486" d=" M 253.11 45.48 C 258.36 45.69 263.69 44.98 268.87 45.98 C 272.50 46.60 274.24 50.72 273.19 54.02 C 272.81 56.30 270.63 57.43 269.01 58.77 C 270.57 62.33 270.29 66.24 270.43 70.03 C 267.97 70.00 265.51 69.97 263.06 69.92 C 263.06 67.63 263.30 65.32 263.02 63.04 C 262.19 60.87 259.22 61.79 257.46 61.24 C 256.83 64.15 256.22 67.07 255.65 69.99 C 253.10 69.99 250.55 70.00 248.00 69.99 C 249.75 61.83 251.38 53.64 253.11 45.48 Z" />
<path fill="#828486" d=" M 275.86 45.52 C 282.88 45.46 289.91 45.53 296.94 45.46 C 296.50 47.64 296.07 49.81 295.66 51.99 C 293.41 51.99 291.17 52.00 288.93 52.01 C 287.68 58.00 286.44 64.00 285.21 70.00 C 282.62 70.00 280.04 70.00 277.46 70.00 C 278.72 64.01 279.97 58.01 281.17 52.01 C 278.95 52.00 276.73 52.00 274.52 51.99 C 274.96 49.84 275.41 47.68 275.86 45.52 Z" />
<path fill="#828486" d=" M 154.67 69.99 C 156.33 61.82 158.02 53.66 159.75 45.50 C 165.59 45.84 171.78 44.51 177.36 46.70 C 181.92 49.54 180.34 56.77 175.71 58.73 C 177.13 62.33 176.87 66.22 177.09 70.00 C 174.62 70.00 172.17 70.00 169.71 69.99 C 169.59 67.51 170.15 64.92 169.44 62.51 C 168.04 61.17 165.82 61.68 164.06 61.32 C 163.44 64.22 162.84 67.12 162.20 70.02 C 159.69 70.01 157.18 70.00 154.67 69.99 Z" />
<path fill="#ffffff" d=" M 98.48 51.63 C 100.49 50.53 103.31 51.81 103.70 54.11 C 104.35 57.44 103.32 61.29 100.61 63.47 C 98.88 64.94 95.49 64.26 94.86 61.95 C 93.83 58.27 95.16 53.73 98.48 51.63 Z" />
<path fill="#ffffff" d=" M 143.45 51.65 C 145.45 50.52 148.30 51.79 148.70 54.10 C 149.35 57.45 148.32 61.33 145.57 63.50 C 143.81 64.95 140.44 64.23 139.84 61.89 C 138.86 58.24 140.17 53.74 143.45 51.65 Z" />
<path fill="#ffffff" d=" M 236.45 51.53 C 239.30 50.28 242.14 53.10 241.56 56.02 C 241.93 60.09 238.17 66.43 233.53 63.46 C 230.76 59.85 232.53 53.63 236.45 51.53 Z" />
<path fill="#ffffff" d=" M 166.18 51.27 C 168.51 51.46 170.81 51.90 172.99 52.76 C 171.83 56.37 168.25 56.16 165.15 56.10 C 165.49 54.49 165.83 52.88 166.18 51.27 Z" />
<path fill="#ffffff" d=" M 211.88 51.74 C 213.71 52.14 218.49 51.78 216.94 54.91 C 216.06 57.31 212.87 56.37 210.91 56.99 C 211.22 55.23 211.55 53.49 211.88 51.74 Z" />
<path fill="#ffffff" d=" M 259.38 51.44 C 261.81 51.44 264.21 51.86 266.46 52.83 C 265.18 56.30 261.63 56.16 258.57 56.14 C 258.84 54.58 259.10 53.01 259.38 51.44 Z" />
<path fill="#71bf44" d=" M 54.75 72.00 C 60.50 72.00 66.26 72.00 72.01 72.00 C 72.00 73.50 71.99 75.01 71.97 76.51 C 68.15 76.50 64.33 76.50 60.51 76.50 C 60.51 77.38 60.50 79.12 60.50 80.00 C 64.01 80.00 67.51 80.00 71.02 80.00 C 71.00 81.51 70.97 83.02 70.94 84.53 C 67.46 84.50 63.98 84.50 60.50 84.50 C 60.50 85.44 60.51 87.31 60.51 88.25 C 64.42 88.25 68.33 88.25 72.24 88.24 C 72.25 89.91 72.25 91.58 72.25 93.25 C 66.42 93.25 60.58 93.25 54.75 93.25 C 54.75 86.17 54.75 79.08 54.75 72.00 Z" />
<path fill="#71bf44" d=" M 84.00 72.00 C 85.92 72.00 87.84 72.00 89.76 72.01 C 89.75 77.42 89.75 82.83 89.76 88.24 C 93.01 88.25 96.27 88.24 99.53 88.26 C 99.50 89.93 99.47 91.60 99.44 93.27 C 94.29 93.24 89.15 93.25 84.00 93.25 C 84.00 86.17 84.00 79.08 84.00 72.00 Z" />
<path fill="#71bf44" d=" M 111.00 72.00 C 116.68 72.00 122.37 72.00 128.05 72.00 C 127.99 73.52 127.94 75.04 127.89 76.56 C 124.18 76.49 120.47 76.49 116.76 76.50 C 116.76 77.37 116.75 79.12 116.75 80.00 C 120.17 80.00 123.59 80.00 127.01 80.00 C 127.00 81.50 126.99 83.01 126.97 84.51 C 123.57 84.50 120.16 84.50 116.76 84.50 C 116.76 85.44 116.76 87.31 116.76 88.24 C 120.59 88.24 124.42 88.25 128.26 88.25 C 128.25 89.92 128.25 91.58 128.24 93.25 C 122.50 93.25 116.75 93.25 111.00 93.25 C 111.00 86.17 111.00 79.08 111.00 72.00 Z" />
<path fill="#71bf44" d=" M 142.37 90.55 C 137.07 84.99 139.17 73.82 147.03 71.85 C 152.80 69.99 159.34 73.66 160.36 79.72 C 158.49 79.74 156.63 79.74 154.77 79.73 C 153.52 78.31 152.29 76.00 150.01 76.52 C 143.65 76.87 143.69 88.33 149.99 88.73 C 152.52 89.19 153.66 86.52 154.73 84.79 C 156.60 84.77 158.47 84.76 160.35 84.76 C 159.57 87.01 159.14 89.60 157.30 91.28 C 153.16 94.92 146.13 94.62 142.37 90.55 Z" />
<path fill="#71bf44" d=" M 170.25 72.00 C 176.33 72.00 182.41 72.00 188.50 72.00 C 188.50 73.66 188.50 75.33 188.50 76.99 C 186.41 77.00 184.33 77.00 182.25 77.01 C 182.26 82.42 182.25 87.84 182.25 93.25 C 180.33 93.25 178.42 93.25 176.50 93.25 C 176.50 87.84 176.49 82.44 176.51 77.03 C 174.42 77.01 172.33 77.00 170.24 76.98 C 170.24 75.32 170.24 73.66 170.25 72.00 Z" />
<path fill="#71bf44" d=" M 199.75 72.01 C 203.83 72.04 207.92 71.82 212.00 72.10 C 215.04 72.20 218.37 74.63 218.05 77.95 C 218.28 80.07 216.79 81.71 215.77 83.39 C 217.99 86.22 218.03 89.88 218.56 93.28 C 216.67 93.26 214.79 93.25 212.91 93.24 C 212.48 90.99 212.49 88.57 211.43 86.50 C 209.82 85.18 207.46 85.67 205.52 85.34 C 205.50 87.97 205.50 90.61 205.49 93.25 C 203.58 93.25 201.66 93.25 199.75 93.25 C 199.74 86.17 199.75 79.09 199.75 72.01 Z" />
<path fill="#71bf44" d=" M 230.00 72.00 C 231.92 72.00 233.84 72.00 235.76 72.01 C 235.75 79.09 235.75 86.16 235.76 93.24 C 233.84 93.25 231.92 93.25 230.00 93.25 C 230.00 86.17 230.00 79.08 230.00 72.00 Z" />
<path fill="#71bf44" d=" M 250.37 90.55 C 245.05 84.97 247.19 73.76 255.09 71.83 C 260.85 70.01 267.33 73.70 268.37 79.72 C 266.50 79.74 264.63 79.74 262.76 79.73 C 261.52 78.31 260.24 76.00 257.99 76.52 C 251.69 76.89 251.69 88.21 257.90 88.72 C 260.46 89.26 261.65 86.55 262.73 84.79 C 264.60 84.77 266.47 84.76 268.34 84.76 C 267.56 87.02 267.15 89.63 265.28 91.30 C 261.14 94.92 254.12 94.61 250.37 90.55 Z" />
<path fill="#71bf44" d=" M 279.45 75.37 C 283.47 69.02 295.62 70.34 296.73 78.44 C 294.87 78.46 293.02 78.47 291.16 78.44 C 289.81 76.15 285.37 74.51 284.59 78.04 C 287.57 79.85 291.18 80.10 294.24 81.75 C 297.77 83.75 297.87 89.34 294.71 91.74 C 291.67 94.17 287.31 94.11 283.69 93.26 C 280.30 92.49 278.73 89.11 277.85 86.08 C 279.72 86.04 281.59 86.02 283.47 86.02 C 284.75 89.29 288.68 90.24 291.38 88.00 C 290.58 84.46 285.96 85.00 283.34 83.57 C 279.85 82.76 277.93 78.55 279.45 75.37 Z" />
<path fill="#ffffff" d=" M 205.53 76.30 C 207.59 76.51 209.72 76.51 211.69 77.24 C 211.87 78.37 211.99 79.51 212.06 80.65 C 209.88 80.86 207.69 81.00 205.50 81.11 C 205.50 79.50 205.51 77.90 205.53 76.30 Z" />
</svg>
